<svg aria-hidden="true" style="position:absolute;width:0;height:0" xmlns="http://www.w3.org/2000/svg" overflow="hidden"><defs><symbol id="mail" viewBox="0 0 43 32"><path d="M38.667 0H4C1.795 0 0 1.675 0 3.733v22.405c0 2.059 1.795 3.733 4 3.733h34.667c2.205 0 4-1.675 4-3.733V3.733c0-2.059-1.795-3.733-4-3.733zm0 2.488c.181 0 .355.037.512.099L21.334 17.024 3.489 2.587c.152-.062.327-.098.512-.099h34.667zm0 24.893H4c-.736 0-1.333-.557-1.333-1.243V5.215L20.459 19.61c.235.189.537.304.866.304h.017c.329 0 .631-.115.869-.306l-.003.002L40 5.215v20.923c0 .685-.597 1.243-1.333 1.243z"/></symbol><symbol id="phone" viewBox="0 0 21 32"><path d="M18.133 0H3.2C1.436 0 0 1.34 0 2.987v25.89c0 1.647 1.436 2.987 3.2 2.987h14.933c1.764 0 3.2-1.34 3.2-2.987V2.987c0-1.647-1.436-2.987-3.2-2.987zM3.2 1.99h14.933c.589 0 1.067.448 1.067.996v20.911H2.133V2.986c0-.548.478-.996 1.067-.996zm14.933 27.883H3.2c-.589 0-1.067-.448-1.067-.996V25.89H19.2v2.987c0 .548-.478.994-1.067.994z"/><path d="M5.022 27.177a.947.947 0 010 1.407l-.001.001c-.198.182-.464.293-.755.293s-.557-.111-.756-.294l.001.001a.947.947 0 010-1.407l.001-.001c.198-.182.464-.293.755-.293s.557.111.756.294l-.001-.001z"/></symbol><symbol id="facebook" viewBox="0 0 32 32"><path d="M21.328 5.312h2.922V.224C23.748.157 22.013 0 19.996 0c-4.213 0-7.099 2.65-7.099 7.52V12H8.251v5.688h4.646V32h5.699V17.69h4.445l.707-5.688H18.58v-3.92c.002-1.643.443-2.768 2.736-2.768z"/></symbol><symbol id="instagram" viewBox="0 0 32 32"><path d="M31.968 9.408c-.075-1.701-.352-2.869-.744-3.882a7.839 7.839 0 00-1.85-2.837l-.001-.001A7.892 7.892 0 0026.595.861l-.054-.018C25.523.448 24.362.16 22.661.101L16.059 0 9.464.096C7.765.168 6.595.443 5.6.837a7.842 7.842 0 00-2.855 1.85l-.001.001A7.905 7.905 0 00.899 5.52C.505 6.539.23 7.701.155 9.402l-.101 6.602.096 6.595c.075 1.701.352 2.869.744 3.882a7.906 7.906 0 001.849 2.837l.001.001c.8.813 1.77 1.445 2.832 1.845 1.019.394 2.181.669 3.882.744l6.595.096 6.595-.096c1.701-.075 2.869-.352 3.882-.744a8.239 8.239 0 004.664-4.626l.019-.055c.394-1.019.669-2.182.744-3.882l.096-6.595-.08-6.595zm-2.88 13.066c-.069 1.563-.331 2.406-.55 2.97a5.345 5.345 0 01-3.002 3.026l-.036.013c-.563.219-1.413.48-2.97.55l-6.464.096c-4.272 0-4.8-.019-6.464-.096-1.563-.069-2.406-.331-2.97-.55a4.973 4.973 0 01-1.839-1.192l-.001-.001a4.986 4.986 0 01-1.182-1.804l-.011-.034c-.219-.563-.48-1.413-.55-2.97l-.091-6.48.096-6.464c.069-1.563.331-2.406.55-2.97a4.897 4.897 0 011.198-1.837l.002-.002A4.96 4.96 0 016.61 3.547l.034-.011c.563-.219 1.413-.48 2.97-.55l6.464-.096 6.464.096c1.563.069 2.406.331 2.97.55.721.27 1.336.677 1.839 1.193l.001.001a4.986 4.986 0 011.182 1.804l.011.034c.219.563.48 1.413.55 2.97l.096 6.464-.096 6.458zM16.059 7.782a8.224 8.224 0 00-8.221 8.221 8.224 8.224 0 008.221 8.221 8.224 8.224 0 008.221-8.221 8.224 8.224 0 00-8.221-8.221zm0 13.552c-2.944 0-5.333-2.387-5.333-5.333s2.389-5.328 5.333-5.328a5.333 5.333 0 010 10.666zM26.523 7.456a1.919 1.919 0 01-3.838 0 1.92 1.92 0 013.838 0z"/></symbol><symbol id="linkedin" viewBox="0 0 32 32"><path d="M31.992 32H32V20.264c0-5.741-1.237-10.163-7.947-10.163-3.227 0-5.392 1.771-6.277 3.45h-.093v-2.91h-6.365v21.36h6.627V21.422c0-2.784.528-5.478 3.978-5.478 3.398 0 3.45 3.179 3.45 5.658v10.4h6.621zM.528 10.635h6.635V32H.528V10.635zM3.843 0C1.721 0 0 1.722 0 3.843s1.722 3.878 3.843 3.878 3.843-1.757 3.843-3.878S5.963 0 3.843 0z"/></symbol><symbol id="logo-2" viewBox="0 0 25 32"><path d="M10.447 1.806h.084c.156 0 .324.015.49.03a13.96 13.96 0 012.18.329V.403a12.344 12.344 0 00-2.207-.356l-.042-.002-.91-.044h-.263c-1.523.006-3.04.201-4.514.582a18.28 18.28 0 00-4.79 1.948v17.47a18.92 18.92 0 014.431-1.749l.135-.029a19.11 19.11 0 013.78-.586l.052-.002h.052l.655-.018v-1.785c-1.78.024-3.493.264-5.129.695l.147-.033-1.731.513-.623.211V3.591l.266-.123c1.89-.92 4.095-1.516 6.423-1.655l.048-.002a.636.636 0 01.062 0c.221-.012.48-.019.74-.019h.28l.388.014zm4.384 1.845h-.017c-.418 0-.832-.016-1.242-.046l.055.003-1.401-.167-.814-.164v17.274a13.9 13.9 0 003.425.404 18.376 18.376 0 004.514-.581 18.396 18.396 0 004.792-1.948V1.263a19.031 19.031 0 01-4.428 1.751l-.136.03c-1.423.381-3.057.602-4.742.609h-.004zm6.907.299l.623-.209v13.631l-.266.123c-.903.442-1.962.834-3.065 1.118l-.119.026a16.118 16.118 0 01-4.07.527h-.015c-.424 0-.843-.019-1.257-.056l.054.004-.426-.037V5.064l.497.033 1.141.034a21.092 21.092 0 005.173-.663l1.731-.518zM1.684 25.977a.915.915 0 00-.311-.212l-.006-.002a.899.899 0 00-.369-.066H.983c-.139 0-.271.028-.391.078l.007-.003a.893.893 0 00-.51.513l-.002.006a1 1 0 00-.071.374v.013-.001 2.335l-.001.037c0 .16.034.311.095.448l-.003-.007a.972.972 0 00.234.308.814.814 0 00.315.165l.006.001c.104.03.224.048.348.049h.01c.134 0 .26-.03.373-.084l-.005.002a.99.99 0 00.311-.216c.084-.088.153-.192.201-.307l.002-.007a.925.925 0 00.074-.367v-.268h-.622v.222c0 .07-.013.136-.037.198l.001-.004a.38.38 0 01-.089.132.351.351 0 01-.125.067l-.003.001a.422.422 0 01-.127.022H.973a.292.292 0 01-.16-.025.321.321 0 01-.126-.101l-.001-.001a.55.55 0 01-.082-.29l.001-.025v.001-2.201c0-.118.028-.23.077-.33l-.002.004a.325.325 0 01.121-.112l.002-.001a.301.301 0 01.17-.027.327.327 0 01.272.131l.001.001c.062.09.105.2.101.308v.202h.615v-.245c0-.143-.027-.28-.077-.406l.003.007a.968.968 0 00-.204-.329zm3.627-.026a1.09 1.09 0 00-.694-.257 1.08 1.08 0 00-.364.066.976.976 0 00-.323.192l.001-.001a.957.957 0 00-.234.321l-.002.006a1.074 1.074 0 00-.089.431v.023-.001 2.266c0 .156.033.305.092.439l-.003-.007a.898.898 0 00.237.308c.09.084.197.151.316.195l.007.002a1.045 1.045 0 00.736-.002l-.007.002c.127-.047.237-.114.331-.198l-.001.001a.958.958 0 00.228-.307l.002-.006c.056-.127.089-.275.089-.431v-.029.001-2.261c0-.156-.033-.304-.092-.438l.003.007a1.012 1.012 0 00-.23-.326zm-.285 3.018a.388.388 0 01-.121.324.443.443 0 01-.574 0 .4.4 0 01-.096-.146l-.001-.003a.434.434 0 01-.025-.176v-2.24a.388.388 0 01.121-.324.443.443 0 01.574 0A.4.4 0 015 26.55l.001.003c.021.062.03.123.025.176v2.24zm5.046 1v-4.246h-.587l-.77 2.244h-.011l-.776-2.244h-.581v4.246h.606v-2.585h.011l.593 1.823h.308l.597-1.823h.011v2.585h.606zm3.446-3.942a.846.846 0 00-.337-.23l-.006-.002a1.546 1.546 0 00-.439-.066h-.9v4.246h.604v-1.668h.311a1.092 1.092 0 00.551-.119l-.006.003a.88.88 0 00.329-.32l.002-.004a1 1 0 00.138-.363l.001-.006c.021-.133.033-.287.033-.444v-.04.002l.001-.07c0-.19-.022-.375-.063-.552l.003.016a.961.961 0 00-.223-.39zm-.311 1.292a.538.538 0 01-.057.224l.001-.003a.34.34 0 01-.154.148l-.002.001a.617.617 0 01-.254.054l-.032-.001h.002-.276v-1.441h.311l.029-.001c.088 0 .172.02.247.055l-.004-.002a.35.35 0 01.141.154l.001.002a.62.62 0 01.053.236v.572h-.006zm3.172-1.59h-.495l-.934 4.246h.604l.177-.911h.823l.177.911h.604l-.958-4.246zm-.557 2.751l.297-1.537h.011l.295 1.537h-.61zm4.461-.197h-.011l-.918-2.56h-.581v4.246h.604V27.42h.012l.923 2.549h.568v-4.246h-.604v2.554zm3.691-2.554l-.492 1.686h-.012l-.492-1.686h-.64l.83 2.447v1.793h.604v-1.792l.83-2.447h-.64zM0 31.166h.291v.817h.197v-.817h.289v-.167H0v.167zm2.447-.168l-.382.985h.211l.081-.224h.392l.084.224h.215l-.391-.985h-.21zm-.03.595l.134-.365.134.365h-.268zm2.449.027h.228v.127a.373.373 0 01-.234.083h-.015a.235.235 0 01-.102-.023l.001.001a.253.253 0 01-.092-.072.41.41 0 01-.074-.235l.001-.022v.001c0-.219.095-.329.283-.329l.02-.001c.097 0 .179.066.202.156v.001l.194-.037c-.042-.193-.18-.289-.417-.289a.494.494 0 00-.345.127.498.498 0 00-.112.17l-.001.003a.492.492 0 00-.03.205.534.534 0 00.126.369.469.469 0 00.344.145l.032-.001h-.001.017a.585.585 0 00.401-.157v-.388h-.426v.166zm2.47-.616h-.198v.985h.689v-.174h-.49v-.817zm2.09 0h-.199v.985h.199v-.985zm2.042.658l-.403-.657h-.193v.985h.185v-.643l.396.643h.197v-.985h-.182v.657zm1.846-.106h.49v-.167h-.49v-.215h.528v-.167h-.726v.985h.747v-.175h-.554v-.266zm4.477-.163h-.388v-.388h-.197v.985h.197v-.431h.388v.431h.197v-.985h-.197v.388zm1.857.163h.492v-.167h-.492v-.215h.529v-.167h-.731v.985h.746v-.175h-.554v-.266zm2.519 0c.171-.026.258-.123.258-.274a.236.236 0 00-.095-.219h-.001a.55.55 0 00-.249-.059l-.041.001h.002-.417v.985h.197v-.412h.055c.039 0 .076.008.109.023l-.002-.001a.21.21 0 01.07.072l.215.308h.237l-.12-.193a.676.676 0 00-.218-.236zm-.199-.136h-.146v-.247h.156a.522.522 0 01.201.023.118.118 0 01.033.046.133.133 0 01-.006.113v-.001a.153.153 0 01-.037.043.537.537 0 01-.164.025l-.038-.001h.002zm2.092.136h.49v-.167h-.489v-.215h.529v-.167h-.729v.985h.753v-.175h-.554v-.266z"/></symbol><symbol id="logo-3" viewBox="0 0 31 32"><path d="M4.723 31.103c.011 0 .022.003.032.007s.019.01.027.019l.153.161a1.285 1.285 0 01-.423.302l-.008.003c-.169.07-.366.11-.571.11l-.041-.001h.002-.031a1.5 1.5 0 01-.554-.106l.01.004a1.25 1.25 0 01-.432-.288 1.309 1.309 0 01-.28-.445 1.456 1.456 0 01-.097-.571v-.021a1.5 1.5 0 01.108-.562l-.004.01a1.43 1.43 0 01.298-.445c.129-.123.281-.224.449-.294l.01-.004c.17-.065.367-.102.573-.102h.02-.001.034c.185 0 .362.034.525.097l-.01-.003c.158.066.294.153.413.259l-.001-.001-.128.171c-.009.012-.02.022-.033.031s-.034.015-.052.013-.039-.007-.056-.019l-.069-.045-.097-.058a.913.913 0 00-.121-.054l-.007-.002a1.025 1.025 0 00-.168-.044l-.006-.001a1.083 1.083 0 00-.204-.018h-.025.001-.014c-.148 0-.289.028-.419.079l.008-.003a.947.947 0 00-.333.215.994.994 0 00-.214.336l-.002.007c-.05.129-.078.279-.078.435v.018-.001.019c0 .158.029.31.081.45l-.003-.009a1 1 0 00.213.341.862.862 0 00.312.209l.006.002c.114.046.246.073.384.073h.01-.001c.078.002.149-.004.234-.015a.879.879 0 00.506-.236l-.001.001a.117.117 0 01.073-.03zm4.42-.807v.017c0 .198-.038.387-.107.56l.004-.01c-.063.164-.161.315-.288.441s-.283.223-.452.298a1.711 1.711 0 01-1.164 0 1.216 1.216 0 01-.449-.297 1.3 1.3 0 01-.288-.436l-.003-.009a1.614 1.614 0 01.004-1.147l-.004.011a1.262 1.262 0 01.738-.723l.009-.003a1.674 1.674 0 011.176.004l-.012-.004c.177.068.328.169.451.297.121.123.218.268.285.43l.003.009c.071.182.106.376.104.571zm-.402 0v-.025c0-.155-.027-.303-.076-.441l.003.009a.945.945 0 00-.205-.341.908.908 0 00-.318-.213l-.006-.002a1.219 1.219 0 00-.855.003l.009-.003a.897.897 0 00-.323.215.94.94 0 00-.205.334l-.002.007a1.464 1.464 0 00.003.922l-.003-.01a.89.89 0 00.525.552l.006.002a1.262 1.262 0 00.855-.003l-.009.003a.893.893 0 00.323-.213c.092-.099.162-.223.205-.341.046-.127.073-.275.073-.428v-.03.001zm3.418.478l.04.102.045-.102c.017-.04.034-.073.052-.105l-.003.005.978-1.694c.019-.03.037-.048.056-.052a.236.236 0 01.067-.009h.014-.001.289v2.756h-.342v-2.207l-.984 1.718c-.013.026-.033.048-.057.063s-.052.022-.083.022h-.062a.148.148 0 01-.081-.023h.001a.154.154 0 01-.057-.062v-.001l-1.012-1.729v2.212h-.331v-2.749h.302c.024 0 .047.003.069.01h-.002a.107.107 0 01.053.052v.001l.999 1.697a.603.603 0 01.05.098zm3.682-.136v1.032h-.383v-2.751h.884c.159 0 .312.022.458.063l-.012-.003c.13.035.242.094.339.172l-.002-.001a.715.715 0 01.19.265l.002.005c.041.1.066.216.066.337v.015-.001a.84.84 0 01-.071.352.746.746 0 01-.206.274l-.001.001a.948.948 0 01-.332.181l-.007.002a1.29 1.29 0 01-.461.064l-.463-.007zm0-.295h.477a.956.956 0 00.29-.044l-.007.002a.61.61 0 00.215-.12l-.001.001a.49.49 0 00.129-.179l.001-.003a.565.565 0 00.046-.225v-.006l.001-.029a.505.505 0 00-.041-.198l.001.003a.544.544 0 00-.133-.188.766.766 0 00-.518-.147h.003-.463v1.134zm5.145 1.33h-.302c-.03.001-.06-.007-.084-.025s-.039-.039-.05-.064l-.26-.666h-1.308l-.27.666a.14.14 0 01-.133.089h-.302l1.148-2.756h.398l1.164 2.756zm-1.895-1.024h1.079l-.455-1.122c-.03-.07-.06-.156-.083-.245l-.003-.014-.045.144-.042.117-.452 1.12zm3.55-1.711c.022.012.042.03.057.049l1.674 2.084v-2.14h.342v2.756h-.196a.164.164 0 01-.074-.017h.001a.192.192 0 01-.061-.052l-1.673-2.084a.753.753 0 010 .095v2.048h-.342v-2.756h.207a.18.18 0 01.066.013h-.001zm4.897 1.647v1.094h-.383v-1.094l-1.058-1.66h.342c.03-.002.06.007.074.024s.039.039.052.062l.67 1.072.069.127c.015.031.032.07.045.109l.002.008.05-.119a.958.958 0 01.066-.127l.653-1.078c.013-.022.03-.041.05-.058s.052-.03.074-.028h.346l-1.06 1.667zm-15.566-6.284l.506.052c2.582-1.101 4.768-2.902 6.281-5.18s2.29-4.93 2.23-7.624l-2.846-2.712c.189.894.297 1.921.297 2.973 0 2.015-.396 3.938-1.115 5.695l.036-.1c-1.09 2.731-2.956 5.12-5.389 6.899zm-1.017-.127l.077.015c2.6-1.771 4.583-4.246 5.692-7.104.627-1.564.991-3.378.991-5.276 0-1.296-.17-2.553-.488-3.748l.023.101-4.054-3.87c1.639 3.175 2.307 6.727 1.904 10.246s-1.833 6.857-4.143 9.628zm13.75-9.444c-.688 2.962-2.361 5.632-4.763 7.616a15.02 15.02 0 01-2.266 1.55c1.961-.549 3.764-1.52 5.269-2.838s2.679-2.947 3.412-4.763L24.72 14.73zm-.645-.436l-2.341-2.23a13.684 13.684 0 01-2.23 7.249l.032-.053a14.668 14.668 0 01-5.729 5.137h.011c.554 0 1.1-.033 1.637-.096l-.065.006c2.203-.856 4.148-2.219 5.656-3.966s2.553-3.825 3.021-6.047zM11.294 2.664L8.501 0c-2.497.919-4.644 2.535-6.16 4.636S.008 9.225.001 11.775c.01 2.817 1.005 5.552 2.828 7.769s4.372 3.793 7.241 4.476c2.562-2.973 4.061-6.647 4.281-10.488S13.5 5.878 11.295 2.663zm19.218 11.215c-.01-3.343-1.409-6.547-3.89-8.91s-5.844-3.704-9.352-3.707h-.024c-1.693 0-3.315.308-4.811.872l.094-.031 17.099 16.298c.559-1.334.883-2.885.883-4.511v-.012.001z"/></symbol><symbol id="logo-4" viewBox="0 0 60 32"><path d="M9.229 9.548h-.002c-1.683 0-3.048 1.33-3.048 2.971v.002c0 1.641 1.365 2.971 3.048 2.971h.002c1.683 0 3.048-1.33 3.048-2.971v-.002c0-1.641-1.365-2.971-3.048-2.971zm22.501-.949a8.496 8.496 0 00-2.59-6.074A8.93 8.93 0 0022.908 0c-2.339.004-4.581.912-6.236 2.53s-2.585 3.795-2.59 6.076v12.559S31.719 19.25 31.73 8.601v-.002zM0 25.289a5.905 5.905 0 001.801 4.225l.002.001a6.238 6.238 0 004.336 1.758 6.24 6.24 0 004.336-1.756 5.905 5.905 0 001.803-4.224v-8.746S0 17.881 0 25.289zm6.14 1.566h-.001c-.332 0-.64-.099-.898-.268l.006.004a1.575 1.575 0 01-.592-.703 1.535 1.535 0 01.347-1.707c.22-.213.5-.365.813-.427l.01-.002c.313-.06.635-.03.929.089.298.121.543.32.718.572l.003.005c.169.243.271.545.271.871v.005c0 .215-.044.42-.124.606l.004-.01a1.56 1.56 0 01-.348.51 1.61 1.61 0 01-.522.341 1.61 1.61 0 01-.616.12h-.001v-.006zm12.539-.972h-1.255v1.297h-.655v-3.172h2.059v.53h-1.412v.82h1.264v.521zm3.144-.218c0 .313-.055.586-.166.822s-.268.417-.476.545-.441.192-.707.192-.499-.063-.704-.19a1.281 1.281 0 01-.476-.533l-.003-.008a1.86 1.86 0 01-.171-.819v-.149c0-.313.056-.595.168-.824s.272-.421.478-.547.442-.192.707-.192h.023c.252 0 .487.072.686.195l-.006-.003c.206.127.372.309.478.547s.171.511.171.822v.149zm-.669-.144c0-.333-.06-.586-.179-.759s-.298-.26-.511-.26l-.026-.001a.58.58 0 00-.481.256l-.001.002c-.119.17-.179.42-.181.75v.155c0 .324.06.575.179.755a.582.582 0 00.489.268l.026-.001h-.001c.22 0 .387-.086.506-.258s.177-.424.179-.755v-.155zm2.783.819c0-.124-.045-.218-.131-.283s-.244-.137-.471-.208-.406-.147-.539-.218c-.36-.195-.541-.457-.541-.787v-.011c0-.168.054-.323.145-.449l-.002.002a.946.946 0 01.41-.314l.006-.002c.181-.076.386-.113.61-.113h.023c.211 0 .412.046.592.128l-.009-.004a.942.942 0 01.412.347.908.908 0 01.149.5v.011-.001h-.655l.001-.024a.421.421 0 00-.138-.313.601.601 0 00-.386-.122c-.16 0-.284.034-.372.103s-.134.149-.134.266c0 .104.052.19.155.26s.258.135.46.196c.372.112.643.251.813.417s.255.372.255.619l.001.03a.767.767 0 01-.31.616l-.002.001c-.208.149-.487.233-.839.233-.244 0-.467-.045-.667-.134a1.074 1.074 0 01-.458-.365l-.002-.003a.934.934 0 01-.157-.522v-.02.001h.656c0 .35.208.525.628.525.149 0 .277-.031.372-.094s.131-.153.131-.266zm3.497-1.812h-.973v2.645h-.655v-2.637h-.967v-.53h2.586v.53zm2.285 1.268h-1.255v.851h1.474v.525H27.81v-3.165h2.124v.53h-1.47v.757h1.256v.521zm1.777.214h-.521v1.162h-.655v-3.165h1.18c.375 0 .665.083.868.251s.298.403.298.708c0 .223-.048.397-.149.543s-.234.259-.424.345l.687 1.297v.03h-.702l-.595-1.162zm-.521-.53h.521c.164 0 .292-.042.382-.124s.135-.201.135-.347-.043-.268-.129-.354-.214-.129-.39-.129h-.525v.953zm3.964.573v1.119h-.655v-3.164h1.238c.238 0 .448.045.628.131.176.082.319.21.417.369l.002.004c.097.16.146.342.146.547 0 .311-.107.557-.32.744s-.506.268-.883.268h-.573zm0-.53h.584c.173 0 .298-.041.394-.122s.138-.198.138-.35c0-.149-.046-.281-.138-.377s-.218-.145-.372-.149h-.6v.997zm4.137.273h-1.255v.851h1.474v.525h-2.128v-3.164h2.123v.53h-1.47v.757h1.25v.521zm3.035-1.269h-.98v2.645h-.655v-2.636h-.967v-.53h2.586v.53zm2.285 1.269h-1.263v.851h1.474v.525h-2.128v-3.164h2.124v.53h-1.469v.757h1.256v.521zm1.777.213h-.521v1.162h-.655v-3.164h1.18c.375 0 .665.083.868.251s.298.403.298.708c0 .223-.047.397-.149.543s-.234.259-.424.345l.687 1.297v.03h-.702l-.595-1.162zm-.521-.53h.521c.164 0 .292-.042.382-.124s.135-.201.135-.347-.043-.268-.129-.354-.214-.129-.39-.129h-.525v.953zm3.844.859c0-.124-.045-.218-.131-.283s-.244-.137-.471-.208a3.363 3.363 0 01-.558-.227l.019.009c-.36-.195-.541-.457-.541-.787v-.011c0-.168.054-.323.145-.449l-.002.002a.946.946 0 01.41-.314l.006-.002c.181-.076.386-.113.61-.113h.023c.211 0 .412.046.592.128l-.009-.004a.942.942 0 01.412.347.908.908 0 01.149.5v.011-.001h-.655l.001-.024a.421.421 0 00-.138-.313.602.602 0 00-.387-.122c-.16 0-.284.034-.372.103s-.134.149-.134.266c0 .104.052.19.155.26s.258.135.46.196c.372.112.643.251.813.417s.255.372.255.619l.001.03a.767.767 0 01-.31.616l-.002.001c-.208.149-.487.233-.839.233-.244 0-.467-.045-.667-.134a1.074 1.074 0 01-.458-.365l-.002-.003a.934.934 0 01-.157-.522v-.02.001h.657c0 .35.208.525.628.525.149 0 .277-.031.372-.094s.131-.153.131-.266z"/></symbol><symbol id="logo-5" viewBox="0 0 40 32"><path d="M3.056 26.742c.147.182.236.415.236.67v.02-.001a1.082 1.082 0 01-.364.869l-.001.001a1.57 1.57 0 01-1.065.317h.005H.001v-4.361h1.827a1.554 1.554 0 011.017.293l-.005-.003a.995.995 0 01.355.765l-.001.053v-.002a1.01 1.01 0 01-.214.67l.002-.002a.987.987 0 01-.55.339l-.007.001c.256.048.474.183.629.371l.001.002zm-2.188-.658h.78a.734.734 0 00.497-.145.505.505 0 00.132-.19l.001-.003a.502.502 0 00.034-.233l.001-.036a.53.53 0 00-.038-.199l.001.004a.535.535 0 00-.13-.194.75.75 0 00-.513-.146h.003-.767v1.144zm1.354 1.672a.535.535 0 00.142-.197l.001-.003a.545.545 0 00.042-.209l-.001-.035v.002l.001-.031a.552.552 0 00-.189-.416l-.001-.001a.794.794 0 00-.48-.16l-.052.002h.002-.818v1.2H1.7a.816.816 0 00.524-.151zm4.568.86l-1.016-1.704h-.381v1.704h-.875v-4.361h1.654a1.62 1.62 0 011.155.372l-.003-.002a1.4 1.4 0 01.121 1.809l.003-.004a1.344 1.344 0 01-.781.442l-.008.001 1.089 1.743H6.79zm-1.398-2.298h.715c.497 0 .745-.22.745-.66l.001-.039a.608.608 0 00-.044-.23l.001.004a.665.665 0 00-.143-.226.771.771 0 00-.562-.177h-.723l.008 1.328zm6.182 1.421H9.831l-.308.885h-.916l1.6-4.312h.991l1.593 4.312h-.924l-.302-.885zm-.233-.66l-.637-1.84-.637 1.84h1.273zm6.216 1.537h-.876l-1.946-2.965v2.965h-.865v-4.361h.865l1.946 2.982v-2.982h.868v4.361zm4.953-1.043c-.182.33-.45.593-.775.764l-.01.005a2.558 2.558 0 01-1.22.275h-1.546v-4.361h1.546c.422-.011.841.082 1.22.268.335.172.603.433.78.751l.005.009a2.548 2.548 0 010 2.288zm-.994-.104a1.597 1.597 0 00-.001-2.084l.002.002a1.495 1.495 0 00-1.091-.37h.004-.603v2.83h.603a1.501 1.501 0 001.089-.372l-.002.001zM12.119 0s11.2 4.246 10.962 10.39v10.392S11.888 16.534 12.122 10.39L12.119 0zM33.06 18.349a15.138 15.138 0 017.049-2.627l.067-.006v-3.253a14.534 14.534 0 00-7.123 5.886zm-1.278.987c1.748-3.489 4.692-6.163 8.283-7.52l.105-.035V2.407S24.218 8.456 24.555 17.205V32s.711-.27 1.829-.778c0-.473 0-.95.051-1.43a15.36 15.36 0 015.326-10.447l.021-.017zm-1.516 5.496c.084-1.026.271-2.041.558-3.03a14.238 14.238 0 00-3.332 8.032l-.004.052-.042.852a44.08 44.08 0 003.286-1.741l-.218.118a15.515 15.515 0 01-.244-4.341l-.004.057zm.634.053a14.803 14.803 0 00.212 3.971l-.015-.092c4.357-2.619 9.255-6.663 9.066-11.553v-.426a14.282 14.282 0 00-8.293 3.89 14.228 14.228 0 00-.968 4.158l-.003.052z"/></symbol><symbol id="logo-6" viewBox="0 0 62 32"><path d="M31.123 14.854a2.253 2.253 0 01-.397-1.438v.007-2.075c0-.636.139-1.113.394-1.45s.715-.495 1.357-.487c.602 0 1.03.141 1.282.422.275.359.417.798.379 1.241v.487h-1.077v-.487l.001-.064c0-.148-.012-.293-.034-.435l.002.016a.482.482 0 00-.153-.287.581.581 0 00-.39-.111.651.651 0 00-.417.118.568.568 0 00-.178.313l-.001.004a2.54 2.54 0 00-.042.469v.046-.002 2.518a1.425 1.425 0 00.142.716l-.004-.008a.531.531 0 00.209.171.544.544 0 00.28.04h-.003a.55.55 0 00.383-.115l-.001.001a.517.517 0 00.16-.306c.022-.136.034-.293.034-.452v-.055.003-.511h1.077v.466a2.026 2.026 0 01-.376 1.311l.004-.006c-.248.308-.669.462-1.288.462s-1.088-.165-1.353-.506zm4.485.021c-.278-.323-.408-.793-.408-1.416V11.27c0-.616.136-1.083.408-1.4s.727-.474 1.363-.473c.626 0 1.085.157 1.358.473s.417.783.417 1.4v2.182c0 .616-.139 1.089-.415 1.414s-.727.487-1.353.487-1.09-.165-1.363-.486zm1.865-.524c.083-.167.131-.364.131-.573l-.002-.076v.004-2.671a1.233 1.233 0 00-.127-.626.528.528 0 00-.216-.173l-.003-.001a.527.527 0 00-.286-.037h.003a.51.51 0 00-.278.038.522.522 0 00-.22.172l-.001.001a1.235 1.235 0 00-.132.559l.002.078v-.004 2.685a1.292 1.292 0 00.133.653l-.003-.008a.676.676 0 00.223.158l.004.002a.692.692 0 00.558-.002l-.005.002a.672.672 0 00.226-.16v-.013zm2.562-4.883h1.16l.872 4.035.892-4.035h1.128l.113 5.812h-.835l-.089-4.04-.861 4.04h-.676l-.892-4.054-.082 4.054h-.835l.104-5.812zm5.465 0h1.806c1.041 0 1.56.557 1.56 1.651 0 1.054-.547 1.579-1.643 1.579h-.614v2.583h-1.114l.007-5.812zm1.543 2.483a.797.797 0 00.333-.029l-.006.002a.721.721 0 00.279-.156h-.001c.128-.196.184-.427.16-.657l.001-.064c0-.164-.02-.324-.057-.477l.003.014a.46.46 0 00-.221-.276l-.002-.001a1.057 1.057 0 00-.501-.092h.003-.426v1.737h.433zm3.431-2.483h1.197L52.9 15.28h-1.038l-.243-1.341h-1.068l-.25 1.341h-1.047l1.229-5.812zm1.022 3.798l-.417-2.44-.417 2.44h.835zm2.396-3.798h.781l1.494 3.315V9.461h.925v5.812h-.744l-1.503-3.447v3.462h-.957l.002-5.812zm5.366 3.596l-1.241-3.588h1.046l.765 2.305.711-2.305h1.023l-1.228 3.588v2.216h-1.07v-2.216zm-26.413 4.759v.304h-.91v2.362h-.381v-2.362h-.914v-.304h2.205zm2.852 2.664h-.302a.12.12 0 01-.076-.026.142.142 0 01-.049-.061l-.263-.626h-1.268l-.263.626a.177.177 0 01-.04.072.136.136 0 01-.083.025h-.294l1.114-2.666h.388l1.128 2.655zm-1.847-.99h1.053l-.445-1.085a1.93 1.93 0 01-.079-.234l-.004-.017-.042.141-.04.111-.442 1.082zm3.769.729a1.692 1.692 0 00.215 0h-.005c.067-.006.127-.018.186-.034l-.008.002c.064-.015.117-.032.169-.052l-.009.003.15-.065v-.6h-.445c-.011.001-.022-.001-.033-.005s-.021-.009-.028-.017-.014-.014-.017-.022-.006-.017-.006-.026v-.205h.865v1.023a1.562 1.562 0 01-.213.123l-.009.004a1.427 1.427 0 01-.237.089l-.011.003a1.85 1.85 0 01-.278.056 2.896 2.896 0 01-.321.017h-.017c-.197 0-.386-.037-.56-.103l.011.004a1.323 1.323 0 01-.446-.279l.001.001a1.29 1.29 0 01-.284-.414l-.003-.008a1.461 1.461 0 01-.102-.553v-.018c0-.194.037-.379.104-.549l-.004.01a1.23 1.23 0 01.287-.422c.125-.117.273-.211.437-.274l.009-.003c.172-.063.371-.1.578-.1h.022-.001.005c.108 0 .214.008.317.024l-.011-.001c.1.016.19.039.275.071l-.01-.003c.078.028.153.07.223.106.074.045.137.091.196.141l-.002-.002-.107.165a.103.103 0 01-.036.036.098.098 0 01-.051.014.146.146 0 01-.07-.021 1.269 1.269 0 01-.115-.066l.006.004a.824.824 0 00-.143-.069l-.007-.002a1.21 1.21 0 00-.197-.058l-.008-.001a1.574 1.574 0 00-.283-.023 1.245 1.245 0 00-.431.074.895.895 0 00-.532.536l-.002.006c-.099.289-.099.6 0 .888a.95.95 0 00.223.335.95.95 0 00.319.209l.006.002a1.115 1.115 0 00.445.053h-.004zm3.553-.042h1.217v.304h-1.59v-2.664h.381l-.009 2.362zm2.484.304h-.381v-2.664h.381v2.666zm1.417-2.653a.183.183 0 01.058.049l1.63 2.017-.002-.048.002-.05v.002-1.986h.333v2.676h-.192l-.013.001a.171.171 0 01-.071-.016h.001a.266.266 0 01-.06-.05l-1.628-2.008v2.073h-.319v-2.673h.198c.021 0 .042.004.07.013zm4.827-.012v.294h-1.343v.88h1.095v.282h-1.095v.91h1.351v.294h-1.743v-2.66h1.743zM9.951 1.359l16.929 4.55v15.946L9.951 17.308V1.359zM8.865 0v18.082l19.098 5.135V5.13L8.865 0z"/><path d="M19.101 31.61L0 26.471V8.384l19.101 5.137V31.61z"/><path d="M9.181 1.155l16.708 4.494-7.107 6.734-16.71-4.501 7.107-6.727zM8.865 0L0 8.392l19.101 5.137 8.863-8.392L8.866 0zm11.311 30.593l7.788-7.374-7.788-2.096v9.47z"/></symbol><symbol id="logo-1" viewBox="0 0 29 32"><path d="M3.84 0l4.677 4.428h13.046v12.351l4.676 4.428V.001h-22.4z"/><path d="M0 4.241v20.6h21.76v-8.188L8.655 4.246 0 4.241zm17.615 17.587H3.443V7.973h1.002v12.916h13.17v.938zM6.272 28.662l.524-1.078h.438l-.768 1.437v.832h-.397v-.832l-.765-1.437h.439l.524 1.078zm2.24.667h-.881l-.184.53h-.411l.86-2.275h.355l.861 2.275h-.406l-.192-.53zm-.771-.319H8.4l-.33-.944-.33.944zm2.329.234c0-.105.029-.202.086-.289s.17-.193.339-.32c-.088-.111-.15-.206-.192-.284s-.051-.154-.051-.227c0-.178.054-.319.163-.422s.254-.156.438-.156a.57.57 0 01.406.147.467.467 0 01.159.352v.01a.464.464 0 01-.072.256.858.858 0 01-.233.236l-.003.002-.155.113.439.512a.883.883 0 00.096-.405v-.013.001h.33c0 .28-.065.51-.197.689l.335.396h-.44l-.128-.152a.937.937 0 01-.558.183h-.024.001c-.225 0-.405-.06-.541-.178s-.202-.275-.202-.467zm.753.343a.575.575 0 00.358-.128l-.497-.586-.049.035c-.125.095-.188.203-.188.325 0 .105.034.191.102.256s.158.099.272.099zm-.209-1.472c0 .088.054.197.161.33l.173-.118.049-.038a.283.283 0 00.097-.212v-.011a.2.2 0 00-.067-.149.233.233 0 00-.162-.064h-.018a.224.224 0 00-.167.075.274.274 0 00-.066.179v.01zm4.133.997c-.023.243-.113.432-.269.576s-.365.203-.623.203a.902.902 0 01-.48-.128.847.847 0 01-.317-.362l-.002-.005a1.307 1.307 0 01-.117-.552v-.212c0-.214.038-.403.114-.567s.192-.289.32-.384.307-.133.493-.133c.251 0 .453.068.606.205s.242.329.268.578h-.394c-.019-.164-.067-.282-.144-.353s-.188-.109-.336-.109c-.172 0-.304.063-.397.189s-.138.309-.141.552v.202c0 .246.044.433.131.563s.218.194.387.194c.155 0 .272-.035.35-.105s.128-.192.148-.348h.394zm2.176-.338c0 .223-.038.419-.115.588a.866.866 0 01-.808.522h-.018.001c-.184 0-.349-.045-.493-.128s-.256-.22-.335-.386-.118-.358-.119-.576v-.128c0-.222.038-.418.117-.588s.19-.3.333-.389.308-.136.493-.136.349.045.493.128.255.216.333.384c.075.165.119.358.119.562v.022-.001.127zm-.396-.118c0-.252-.048-.445-.144-.58a.466.466 0 00-.385-.202h-.021.001-.017a.468.468 0 00-.384.2l-.001.002c-.096.133-.145.323-.147.567v.131c0 .256.049.444.145.58s.234.205.406.205.309-.067.403-.2.142-.328.142-.584v-.118z"/></symbol><symbol id="twitter" viewBox="0 0 32 32"><path d="M32 6.078c-1.1.493-2.376.857-3.713 1.028l-.068.007a6.556 6.556 0 002.873-3.579l.013-.046a12.88 12.88 0 01-4.076 1.573l-.084.014A6.558 6.558 0 0015.6 9.557v.004c0 .52.043 1.021.152 1.496-5.454-.266-10.28-2.88-13.522-6.861a6.524 6.524 0 00-.902 3.313v.001a6.57 6.57 0 002.914 5.451 6.453 6.453 0 01-2.994-.823l.033.017v.072a6.592 6.592 0 005.213 6.44l.043.008a6.403 6.403 0 01-1.662.215h-.061.003c-.419 0-.843-.024-1.242-.112.85 2.598 3.261 4.509 6.13 4.57a13.093 13.093 0 01-8.122 2.8H1.57h.001-.062c-.531 0-1.055-.034-1.569-.099l.061.006c2.826 1.846 6.287 2.944 10.004 2.944h.063-.003c12.072 0 18.672-10 18.672-18.669 0-.288-.01-.57-.024-.848a13.203 13.203 0 003.258-3.355l.03-.047z"/></symbol><symbol id="antenna" viewBox="0 0 32 32"><path fill="var(--color1, #212121)" d="M30.773 22.098l-8.443-8.505.937-4.616c.225.09.485.144.758.146h.033a2.16 2.16 0 10-2.029-1.42l-.005-.015-4.96.606L8.973.161a.53.53 0 00-.376-.16.536.536 0 00-.373.155L6.712 1.66a.535.535 0 000 .754l.814.825C6.383 5.301 5.71 7.761 5.71 10.378c0 4.106 1.656 7.824 4.336 10.525l-.001-.001a.49.49 0 00.146.097 2.986 2.986 0 00-.052.546v6.188h-6.4a2.669 2.669 0 00-2.667 2.666v1.067c0 .295.239.534.534.534H26.14a.534.534 0 00.533-.534v-1.067a2.67 2.67 0 00-2.666-2.666h-6.4v-2.742a14.784 14.784 0 0010.166-1.502l-.077.039.818.823a.534.534 0 00.376.16.536.536 0 00.373-.155l1.512-1.504a.535.535 0 000-.754zM23.28 6.233a1.067 1.067 0 11.752 1.822h-.004a1.066 1.066 0 01-.747-1.822h-.002zm-1.256 3.504l-.598 2.946-1.175-1.183 1.774-1.763zm-.605-.902l-1.92 1.909-1.486-1.493 3.406-.416zM24.004 28.8a1.6 1.6 0 011.6 1.6v.534H2.138V30.4a1.6 1.6 0 011.6-1.6h20.267zm-7.466-2.134v1.067h-5.334v-1.067h5.334zM11.204 25.6v-4.053c0-1.294 1.196-2.346 2.667-2.346s2.667 1.053 2.667 2.346V25.6h-5.334zm6.4-1.696v-2.357c0-1.882-1.675-3.413-3.733-3.413h-.058c-1.353 0-2.54.707-3.213 1.771l-.009.016a13.817 13.817 0 01-3.812-9.55c0-2.314.567-4.496 1.569-6.414l-.036.077 18.602 18.709c-1.823.947-3.979 1.502-6.266 1.502-1.079 0-2.128-.124-3.136-.357l.093.018zm11.289-.684L7.836 2.039l.754-.752 7.935 7.98c.004 0 .006.007.01.01l13.114 13.191-.757.752z"/><path fill="var(--color2, #2196f3)" d="M13.876 20.267h-.007a1.6 1.6 0 00-.003 3.2h.007a1.6 1.6 0 00.002-3.2zm.373 1.978a.533.533 0 11-.378-.911.533.533 0 01.374.911h.005z"/></symbol><symbol id="astronaut" viewBox="0 0 32 32"><path fill="var(--color2, #2196f3)" d="M31.974 4.524a.535.535 0 00-.427-.362h-.003l-1.91-.278-.855-1.731c-.179-.365-.777-.365-.956 0l-.855 1.731-1.911.278a.534.534 0 00-.296.91l1.383 1.348-.326 1.903a.536.536 0 00.525.624.524.524 0 00.252-.064l-.003.001 1.708-.899 1.709.899a.534.534 0 00.773-.565v.003l-.326-1.903 1.383-1.348a.532.532 0 00.133-.551l.001.004zm-2.463 1.327a.534.534 0 00-.153.472l.191 1.114-1.001-.526a.523.523 0 00-.499.002l.003-.001-1.001.526.192-1.114a.533.533 0 00-.153-.472l-.811-.789 1.119-.163a.532.532 0 00.402-.292l.5-1.013.501 1.013a.532.532 0 00.402.292l1.119.162-.809.79zm-3.377 14.671h-1.067v1.067h1.067v-1.067zm0 2.134h-1.067v1.066h1.067v-1.066zm1.066-1.067h-1.067v1.067H27.2v-1.067zM25.067 21.589H24v1.067h1.067v-1.067zm-2.667 4.8h-1.067v1.067H22.4v-1.067zm0 2.134h-1.067v1.067H22.4v-1.067zm1.066-1.067h-1.067v1.067h1.067v-1.067zm-2.132 0h-1.067v1.067h1.067v-1.067zM16 24.256h-1.067v1.067H16v-1.067zm0 2.133h-1.067v1.067H16v-1.067zm1.067-1.067H16v1.067h1.067v-1.067zm-2.134 0h-1.066v1.067h1.066v-1.067zm-9.066-19.2H4.8v1.066h1.067V6.122zm0 2.134H4.8v1.066h1.067V8.256zm1.066-1.067H5.866v1.067h1.066V7.189zm-2.133 0H3.733v1.067H4.8V7.189z"/><path fill="var(--color1, #212121)" d="M24.715 14.16a1.774 1.774 0 00-1.179-.703l-.009-.001a1.769 1.769 0 00-1.344.355l.004-.003-1.253.96-1.898 1.417-1.358-.541c2.421-1.086 4.113-3.508 4.113-6.32 0-3.823-3.122-6.934-6.961-6.934S7.869 5.5 7.869 9.324c0 1.386.415 2.674 1.12 3.759l-2.768-.024c-.009 0-.016.005-.023.005a.517.517 0 00-.159.033l.004-.001c-.013.005-.026.007-.038.013-.006.003-.013.003-.019.006l-3.233 1.596-.001.001-1.893.91a.429.429 0 00-.064.036l.001-.001a1.782 1.782 0 00-.594 2.306l-.005-.01c.22.424.592.742 1.043.885l.013.003a1.772 1.772 0 001.388-.133l-.009.005 1.388-.738 2.264-1.169 1.357-.008-5.442 5.415-.001.001-1.339 1.333c-.303.299-.49.714-.49 1.173v.005a1.66 1.66 0 001.666 1.663h.004a1.67 1.67 0 001.18-.485l1.314-1.309 1.741-1.3.901.897-3.102 3.088a1.643 1.643 0 00-.491 1.173v.004a1.662 1.662 0 001.666 1.664h.003a1.67 1.67 0 001.18-.485l4.488-4.472c.007-.006.016-.009.022-.016l5.166-5.658 3.471.494a.474.474 0 00.262-.032c.018-.006.033-.015.05-.023.019-.01.039-.015.058-.027l3.213-2.133c.012-.008.018-.021.029-.03.013-.01.029-.014.041-.026l1.271-1.191c.348-.326.564-.787.564-1.3 0-.4-.132-.769-.355-1.067l.003.005zM2.13 17.77a.71.71 0 01-.558.052.717.717 0 01-.214-1.258l.002-.001 1.314-.632.316.924.133.389-.992.527zm3.497-1.828l-1.548.8-.255-.746-.184-.537 2.027-1.001-.04 1.484zm15.1-6.62c0 .918-.219 1.785-.599 2.56l-4.181-1.899a1.865 1.865 0 00-.782-1.384l-.006-.004 1.463-4.861c2.378.756 4.105 2.974 4.105 5.588zm-11.789 0c0-3.235 2.644-5.867 5.894-5.867.253 0 .5.022.745.053l-1.432 4.753c-.019 0-.037-.006-.057-.006h-.001a1.872 1.872 0 00-1.872 1.867 1.873 1.873 0 001.872 1.867h.001c.695 0 1.295-.383 1.618-.944l3.863 1.755a5.893 5.893 0 01-4.737 2.389c-3.25 0-5.894-2.632-5.894-5.867zm5.957.8c0 .441-.362.8-.806.8h-.001a.804.804 0 01-.804-.8c0-.441.361-.8.806-.8s.806.359.806.8zM2.464 25.146a.606.606 0 01-.855.001.591.591 0 010-.844l.962-.959.852.848-.959.955zm3.214 3.734a.606.606 0 01-.855.001.591.591 0 010-.844l.963-.959.852.848-.96.955zm3.482-3.469l-.001.001-1.765 1.76-.852-.848 1.765-1.757a.527.527 0 00.09-.136c.007-.014.02-.026.026-.04.016-.041.019-.085.026-.128.003-.025.014-.048.014-.073 0-.036-.013-.07-.02-.106-.006-.032-.006-.064-.019-.096a.536.536 0 00-.092-.138c-.01-.012-.014-.027-.025-.038h-.001l-.001-.002-1.607-1.6c-.017-.017-.039-.024-.058-.038a.563.563 0 00-.084-.057l-.003-.001a.559.559 0 00-.09-.031l-.003-.001a.502.502 0 00-.101-.02h-.002l-.023-.001a.603.603 0 00-.075.005h.003c-.036.005-.069.009-.104.021a.512.512 0 00-.097.046l.002-.001c-.02.011-.042.015-.061.029l-1.773 1.324-.901-.897 2.399-2.386 4.361 4.289-.928.919zm6.819-7.017c-.015-.002-.03.004-.045.003l-.026-.001a.562.562 0 00-.092.008h.003a.484.484 0 00-.187.07l.002-.001a.528.528 0 00-.083.062c-.013.011-.028.016-.04.029l-4.698 5.146-4.328-4.256 2.833-2.818a.535.535 0 00-.378-.911h-.002l-2.219.013.028-1.607 3.104.027a6.928 6.928 0 004.978 2.101h.003c.438 0 .864-.046 1.28-.122.04.032.08.064.129.085l2.41.96.152.759.178.885-3.003-.427zm4.041.178l-.313-1.558 1.446-1.08.946 1.257-2.08 1.381zm3.754-2.831l-.838.785-.931-1.237.831-.637a.735.735 0 01.543-.143.718.718 0 01.621.71.71.71 0 01-.226.521z"/><path fill="var(--color1, #212121)" d="M13.602 18.544l-2.143-2.134a.53.53 0 00-.752 0l-2.143 2.133a.535.535 0 000 .756l2.143 2.134a.53.53 0 00.752 0l2.143-2.134a.532.532 0 000-.756zm-2.519 1.759l-1.387-1.381 1.386-1.381 1.387 1.381-1.387 1.381zm6.081-15.232l-.258 1.036c.071.018 1.738.452 1.738 2.149h1.067c0-2.017-1.666-2.965-2.547-3.184zm2.547 4.251h-1.067v1.066h1.067V9.322z"/></symbol><symbol id="clock" viewBox="0 0 32 32"><path fill="var(--color1, #212121)" d="M31.296 15.301C31.295 6.849 24.441-.002 15.988 0S.685 6.855.687 15.308c.002 6.788 4.422 12.543 10.541 14.545l.108.031a.667.667 0 00.529-.065.636.636 0 00.283-.357l3.865-12.25a1.913 1.913 0 10-.852-3.63l.011-.005-5.106-5.107a.638.638 0 00-.902.902l5.103 5.109a1.847 1.847 0 00-.191.826c0 .602.283 1.137.723 1.48l.004.003-3.682 11.673C3.843 25.782.117 17.709 2.797 10.431S13.551-.573 20.829 2.108c7.278 2.681 11.004 10.754 8.323 18.032-1.345 3.581-4.003 6.406-7.374 7.938l-.088.036-.398-1.874a.639.639 0 00-1.05-.343l.001-.001-3.837 3.426a.637.637 0 00.227 1.083l.005.001 4.899 1.563a.637.637 0 00.818-.744l.001.004-.391-1.839c5.528-2.374 9.329-7.772 9.329-14.057v-.034.002zm-15.304-.637a.638.638 0 010 1.276.638.638 0 010-1.276zm2.1 14.864l2.184-1.948.603 2.84-2.787-.892z"/><path fill="var(--color2, #2196f3)" d="M15.354 3.185V4.46a.638.638 0 001.276 0V3.185a.638.638 0 10-1.276 0zM3.876 14.664a.638.638 0 000 1.276h1.275a.638.638 0 000-1.276H3.876zm24.232 1.275a.638.638 0 000-1.276h-1.275a.638.638 0 000 1.276h1.275z"/></symbol><symbol id="diagram" viewBox="0 0 32 32"><path fill="var(--color2, #2196f3)" d="M14.926 14.965h1.066v4.798h-1.066v-4.798zm4.264 2.132h1.066v2.665H19.19v-2.665zm-8.529 1.599h1.066v1.066h-1.066v-1.066zm-3.198-.533h1.066v1.6H7.463v-1.6z"/><path fill="var(--color1, #212121)" d="M1.599 28.291h25.586a1.6 1.6 0 001.599-1.599V24.56a1.6 1.6 0 00-1.599-1.599h-.533V9.667l3.028-2.868a1.608 1.608 0 10-.742-.752l-.004-.01-2.281 2.162v-1.23a1.6 1.6 0 00-1.599-1.599H3.731a1.6 1.6 0 00-1.599 1.599v15.992h-.533A1.6 1.6 0 000 24.56v2.132a1.6 1.6 0 001.599 1.599zM30.384 4.837a.533.533 0 010 1.066.533.533 0 010-1.066zM3.198 6.969c0-.294.239-.533.533-.533h21.323c.294 0 .533.239.533.533v2.239l-1.066 1.013V8.036a.534.534 0 00-.534-.534H4.798a.534.534 0 00-.534.533v13.327c0 .294.239.533.534.533h19.189a.534.534 0 00.534-.533v-9.675l1.066-1.01V22.96H3.198V6.969zm4.798 6.93h-.005a1.6 1.6 0 101.112 2.748l1.853.93a.533.533 0 00.636-.123l3.939-4.431 3.872 2.902a.534.534 0 00.686-.039l3.365-3.188v8.131H5.331V8.568h18.123v2.661l-3.771 3.572-3.904-2.927a.534.534 0 00-.718.071v.001l-3.993 4.493-1.493-.746c.01-.056.017-.123.02-.19V15.5a1.6 1.6 0 00-1.599-1.599zm.533 1.599a.533.533 0 01-1.066 0 .533.533 0 011.066 0zm3.198 8.528h5.33v.533a.533.533 0 01-.533.533h-4.265a.533.533 0 01-.533-.533v-.533zm-10.66.534c0-.294.238-.533.533-.533h9.062v.533a1.6 1.6 0 001.599 1.599h4.265a1.6 1.6 0 001.599-1.599v-.533h9.062c.294 0 .533.239.533.533v2.132a.533.533 0 01-.533.533H1.601a.533.533 0 01-.533-.533V24.56z"/></symbol><symbol id="subscribe" viewBox="0 0 32 32"><path fill="var(--color3, #fff)" d="M32 0L0 18l10.227 3.788L26 7 14.002 23.186l.01.004-.012-.004V32l5.735-6.691L27 28l5-28z"/></symbol><symbol viewBox="0 0 16 15" xmlns="http://www.w3.org/2000/svg" id="modal-check"><rect width="16" height="15" rx="2" fill="#2196F3"></rect><path d="M3.957 7.752l-.069-.066-.069.065-.888.842-.076.072.076.073 3.496 3.334.069.066.069-.066 7.504-7.158.076-.073-.076-.072-.882-.841-.069-.066-.069.066-6.553 6.246-2.539-2.422z" fill="#fff" stroke="#fff" stroke-width=".2"></path></symbol><symbol viewBox="0 0 11 11" xmlns="http://www.w3.org/2000/svg" id="modal-close-btn"><path d="M11 1.108L9.892 0 5.5 4.392 1.108 0 0 1.108 4.392 5.5 0 9.892 1.108 11 5.5 6.608 9.892 11 11 9.892 6.608 5.5 11 1.108z"></path></symbol><symbol viewBox="0 0 18 18" xmlns="http://www.w3.org/2000/svg" id="modal-mail"><path d="M15 3H3c-.825 0-1.492.675-1.492 1.5l-.008 9c0 .825.675 1.5 1.5 1.5h12c.825 0 1.5-.675 1.5-1.5v-9c0-.825-.675-1.5-1.5-1.5zm-.3 3.188L9.398 9.502a.759.759 0 0 1-.796 0L3.3 6.188a.637.637 0 1 1 .675-1.08L9 8.25l5.025-3.143a.637.637 0 1 1 .675 1.08z"></path></symbol><symbol viewBox="0 0 18 18" xmlns="http://www.w3.org/2000/svg" id="modal-person"><path d="M9 9a3 3 0 1 0 0-6 3 3 0 1 0 0 6zm0 1.5c-2.003 0-6 1.005-6 3v.75c0 .412.337.75.75.75h10.5c.412 0 .75-.338.75-.75v-.75c0-1.995-3.998-3-6-3z"></path></symbol><symbol viewBox="0 0 18 18" xmlns="http://www.w3.org/2000/svg" id="modal-phone"><path d="M13.996 11.123l-1.838-.21a1.44 1.44 0 0 0-1.187.412l-1.332 1.332a10.888 10.888 0 0 1-4.769-4.77L6.21 6.55a1.44 1.44 0 0 0 .413-1.187l-.21-1.824a1.448 1.448 0 0 0-1.44-1.28H3.72c-.818 0-1.498.68-1.448 1.498.384 6.18 5.326 11.115 11.5 11.499.817.05 1.498-.63 1.498-1.448v-1.252a1.434 1.434 0 0 0-1.274-1.432z"></path></symbol></defs></svg>
